<svg xmlns="http://www.w3.org/2000/svg" width="16.065" height="16.065" viewBox="0 0 16.065 16.065">
  <g transform="translate(-2 -2)">
    <path d="M-322.575,285.806l-2.738-2.738a7.213,7.213,0,0,1-4.37,1.468,7.26,7.26,0,0,1-7.251-7.251,7.259,7.259,0,0,1,7.251-7.251,7.259,7.259,0,0,1,7.251,7.251,7.215,7.215,0,0,1-1.468,4.37l2.738,2.738a1,1,0,0,1,0,1.414,1,1,0,0,1-.707.292A1,1,0,0,1-322.575,285.806Zm-12.359-8.521a5.257,5.257,0,0,0,5.251,5.251,5.234,5.234,0,0,0,3.647-1.477c.019-.023.039-.045.061-.067s.044-.042.067-.061a5.234,5.234,0,0,0,1.477-3.647,5.257,5.257,0,0,0-5.251-5.251A5.257,5.257,0,0,0-334.934,277.285Z" transform="translate(338.934 -268.033)" fill="#858585" />
  </g>
</svg>